<svg xmlns="http://www.w3.org/2000/svg" viewBox="0 0 840 550" font-family="-apple-system, Segoe UI, Helvetica, Arial, sans-serif" font-size="12">
  <rect width="840" height="550" fill="#ffffff"/>
  <text x="420" y="22" text-anchor="middle" font-size="14" font-weight="600">benchmark.jmh.complete.CompleteReadBenchmark.fullScan</text>
  <text x="420" y="36" text-anchor="middle" fill="#666">unit: ms/op · lower is better</text>
  <text x="232" y="54" text-anchor="end" fill="#222">tantivy</text>
  <rect x="240" y="40" width="4" height="22" rx="3" fill="hsl(247, 65%, 45%)"/>
  <text x="250" y="54" fill="#222">8.456</text>
  <text x="232" y="84" text-anchor="end" fill="#222">lucene</text>
  <rect x="240" y="70" width="12" height="22" rx="3" fill="hsl(70, 65%, 45%)"/>
  <text x="258" y="84" fill="#222">21.8</text>
  <text x="232" y="114" text-anchor="end" fill="#222">lmdb+tantivy</text>
  <rect x="240" y="100" width="44" height="22" rx="3" fill="hsl(259, 65%, 45%)"/>
  <text x="290" y="114" fill="#222">77.0</text>
  <text x="232" y="144" text-anchor="end" fill="#222">rocksdb+tantivy</text>
  <rect x="240" y="130" width="44" height="22" rx="3" fill="hsl(262, 65%, 45%)"/>
  <text x="290" y="144" fill="#222">77.9</text>
  <text x="232" y="174" text-anchor="end" fill="#222">lmdb+lucene</text>
  <rect x="240" y="160" width="46" height="22" rx="3" fill="hsl(110, 65%, 45%)"/>
  <text x="292" y="174" fill="#222">81.4</text>
  <text x="232" y="204" text-anchor="end" fill="#222">rocksdb</text>
  <rect x="240" y="190" width="48" height="22" rx="3" fill="hsl(180, 65%, 45%)"/>
  <text x="294" y="204" fill="#222">84.1</text>
  <text x="232" y="234" text-anchor="end" fill="#222">lmdb</text>
  <rect x="240" y="220" width="49" height="22" rx="3" fill="hsl(55, 65%, 45%)"/>
  <text x="295" y="234" fill="#222">86.1</text>
  <text x="232" y="264" text-anchor="end" fill="#222">mapdb</text>
  <rect x="240" y="250" width="49" height="22" rx="3" fill="hsl(186, 65%, 45%)"/>
  <text x="295" y="264" fill="#222">86.7</text>
  <text x="232" y="294" text-anchor="end" fill="#222">rocksdb+lucene</text>
  <rect x="240" y="280" width="49" height="22" rx="3" fill="hsl(201, 65%, 45%)"/>
  <text x="295" y="294" fill="#222">86.7</text>
  <text x="232" y="324" text-anchor="end" fill="#222">chroniclemap</text>
  <rect x="240" y="310" width="69" height="22" rx="3" fill="hsl(27, 65%, 45%)"/>
  <text x="315" y="324" fill="#222">121.2</text>
  <text x="232" y="354" text-anchor="end" fill="#222">halodb+tantivy</text>
  <rect x="240" y="340" width="94" height="22" rx="3" fill="hsl(264, 65%, 45%)"/>
  <text x="340" y="354" fill="#222">164.0</text>
  <text x="232" y="384" text-anchor="end" fill="#222">halodb</text>
  <rect x="240" y="370" width="95" height="22" rx="3" fill="hsl(358, 65%, 45%)"/>
  <text x="341" y="384" fill="#222">166.7</text>
  <text x="232" y="414" text-anchor="end" fill="#222">halodb+lucene</text>
  <rect x="240" y="400" width="99" height="22" rx="3" fill="hsl(261, 65%, 45%)"/>
  <text x="345" y="414" fill="#222">173.0</text>
  <text x="232" y="444" text-anchor="end" fill="#222">h2</text>
  <rect x="240" y="430" width="410" height="22" rx="3" fill="hsl(34, 65%, 45%)"/>
  <text x="656" y="444" fill="#222">714.3</text>
  <text x="232" y="474" text-anchor="end" fill="#222">sqlite</text>
  <rect x="240" y="460" width="453" height="22" rx="3" fill="hsl(228, 65%, 45%)"/>
  <text x="699" y="474" fill="#222">789.5</text>
  <text x="232" y="504" text-anchor="end" fill="#222">duckdb</text>
  <rect x="240" y="490" width="480" height="22" rx="3" fill="hsl(145, 65%, 45%)"/>
  <text x="726" y="504" fill="#222">835.0</text>
</svg>
