<svg xmlns="http://www.w3.org/2000/svg" viewBox="0 0 840 520" font-family="-apple-system, Segoe UI, Helvetica, Arial, sans-serif" font-size="12">
  <rect width="840" height="520" fill="#ffffff"/>
  <text x="420" y="22" text-anchor="middle" font-size="14" font-weight="600">benchmark.jmh.complete.CompleteWriteBenchmark.upsert</text>
  <text x="420" y="36" text-anchor="middle" fill="#666">unit: ops/s · higher is better</text>
  <text x="232" y="54" text-anchor="end" fill="#222">rocksdb</text>
  <rect x="240" y="40" width="480" height="22" rx="3" fill="hsl(180, 65%, 45%)"/>
  <text x="726" y="54" fill="#222">209,476</text>
  <text x="232" y="84" text-anchor="end" fill="#222">tantivy</text>
  <rect x="240" y="70" width="439" height="22" rx="3" fill="hsl(247, 65%, 45%)"/>
  <text x="685" y="84" fill="#222">191,813</text>
  <text x="232" y="114" text-anchor="end" fill="#222">lucene</text>
  <rect x="240" y="100" width="413" height="22" rx="3" fill="hsl(70, 65%, 45%)"/>
  <text x="659" y="114" fill="#222">180,584</text>
  <text x="232" y="144" text-anchor="end" fill="#222">lmdb</text>
  <rect x="240" y="130" width="382" height="22" rx="3" fill="hsl(55, 65%, 45%)"/>
  <text x="628" y="144" fill="#222">167,107</text>
  <text x="232" y="174" text-anchor="end" fill="#222">halodb</text>
  <rect x="240" y="160" width="339" height="22" rx="3" fill="hsl(358, 65%, 45%)"/>
  <text x="585" y="174" fill="#222">148,303</text>
  <text x="232" y="204" text-anchor="end" fill="#222">rocksdb+tantivy</text>
  <rect x="240" y="190" width="209" height="22" rx="3" fill="hsl(262, 65%, 45%)"/>
  <text x="455" y="204" fill="#222">91,620</text>
  <text x="232" y="234" text-anchor="end" fill="#222">rocksdb+lucene</text>
  <rect x="240" y="220" width="207" height="22" rx="3" fill="hsl(201, 65%, 45%)"/>
  <text x="453" y="234" fill="#222">90,574</text>
  <text x="232" y="264" text-anchor="end" fill="#222">halodb+tantivy</text>
  <rect x="240" y="250" width="196" height="22" rx="3" fill="hsl(264, 65%, 45%)"/>
  <text x="442" y="264" fill="#222">85,623</text>
  <text x="232" y="294" text-anchor="end" fill="#222">halodb+lucene</text>
  <rect x="240" y="280" width="192" height="22" rx="3" fill="hsl(261, 65%, 45%)"/>
  <text x="438" y="294" fill="#222">83,958</text>
  <text x="232" y="324" text-anchor="end" fill="#222">h2</text>
  <rect x="240" y="310" width="159" height="22" rx="3" fill="hsl(34, 65%, 45%)"/>
  <text x="405" y="324" fill="#222">69,445</text>
  <text x="232" y="354" text-anchor="end" fill="#222">sqlite</text>
  <rect x="240" y="340" width="118" height="22" rx="3" fill="hsl(228, 65%, 45%)"/>
  <text x="364" y="354" fill="#222">51,708</text>
  <text x="232" y="384" text-anchor="end" fill="#222">mapdb</text>
  <rect x="240" y="370" width="46" height="22" rx="3" fill="hsl(186, 65%, 45%)"/>
  <text x="292" y="384" fill="#222">20,280</text>
  <text x="232" y="414" text-anchor="end" fill="#222">duckdb</text>
  <rect x="240" y="400" width="1" height="22" rx="3" fill="hsl(145, 65%, 45%)"/>
  <text x="247" y="414" fill="#222">802.8</text>
  <text x="232" y="444" text-anchor="end" fill="#222">lmdb+lucene</text>
  <rect x="240" y="430" width="1" height="22" rx="3" fill="hsl(110, 65%, 45%)"/>
  <text x="247" y="444" fill="#222">389.5</text>
  <text x="232" y="474" text-anchor="end" fill="#222">lmdb+tantivy</text>
  <rect x="240" y="460" width="1" height="22" rx="3" fill="hsl(259, 65%, 45%)"/>
  <text x="247" y="474" fill="#222">249.0</text>
</svg>
