<svg xmlns="http://www.w3.org/2000/svg" viewBox="0 0 840 430" font-family="-apple-system, Segoe UI, Helvetica, Arial, sans-serif" font-size="12">
  <rect width="840" height="430" fill="#ffffff"/>
  <text x="420" y="22" text-anchor="middle" font-size="14" font-weight="600">benchmark.jmh.complete.CompleteConcurrency16Benchmark.mixed</text>
  <text x="420" y="36" text-anchor="middle" fill="#666">unit: ops/s · higher is better</text>
  <text x="232" y="54" text-anchor="end" fill="#222">rocksdb+tantivy</text>
  <rect x="240" y="40" width="480" height="22" rx="3" fill="hsl(262, 65%, 45%)"/>
  <text x="726" y="54" fill="#222">818,916</text>
  <text x="232" y="84" text-anchor="end" fill="#222">rocksdb+lucene</text>
  <rect x="240" y="70" width="461" height="22" rx="3" fill="hsl(201, 65%, 45%)"/>
  <text x="707" y="84" fill="#222">786,693</text>
  <text x="232" y="114" text-anchor="end" fill="#222">rocksdb</text>
  <rect x="240" y="100" width="459" height="22" rx="3" fill="hsl(180, 65%, 45%)"/>
  <text x="705" y="114" fill="#222">784,579</text>
  <text x="232" y="144" text-anchor="end" fill="#222">halodb</text>
  <rect x="240" y="130" width="451" height="22" rx="3" fill="hsl(358, 65%, 45%)"/>
  <text x="697" y="144" fill="#222">770,909</text>
  <text x="232" y="174" text-anchor="end" fill="#222">halodb+lucene</text>
  <rect x="240" y="160" width="428" height="22" rx="3" fill="hsl(261, 65%, 45%)"/>
  <text x="674" y="174" fill="#222">731,613</text>
  <text x="232" y="204" text-anchor="end" fill="#222">halodb+tantivy</text>
  <rect x="240" y="190" width="410" height="22" rx="3" fill="hsl(264, 65%, 45%)"/>
  <text x="656" y="204" fill="#222">700,123</text>
  <text x="232" y="234" text-anchor="end" fill="#222">lucene</text>
  <rect x="240" y="220" width="131" height="22" rx="3" fill="hsl(70, 65%, 45%)"/>
  <text x="377" y="234" fill="#222">224,329</text>
  <text x="232" y="264" text-anchor="end" fill="#222">h2</text>
  <rect x="240" y="250" width="28" height="22" rx="3" fill="hsl(34, 65%, 45%)"/>
  <text x="274" y="264" fill="#222">48,329</text>
  <text x="232" y="294" text-anchor="end" fill="#222">mapdb</text>
  <rect x="240" y="280" width="22" height="22" rx="3" fill="hsl(186, 65%, 45%)"/>
  <text x="268" y="294" fill="#222">39,015</text>
  <text x="232" y="324" text-anchor="end" fill="#222">sqlite</text>
  <rect x="240" y="310" width="21" height="22" rx="3" fill="hsl(228, 65%, 45%)"/>
  <text x="267" y="324" fill="#222">36,475</text>
  <text x="232" y="354" text-anchor="end" fill="#222">tantivy</text>
  <rect x="240" y="340" width="16" height="22" rx="3" fill="hsl(247, 65%, 45%)"/>
  <text x="262" y="354" fill="#222">28,620</text>
  <text x="232" y="384" text-anchor="end" fill="#222">duckdb</text>
  <rect x="240" y="370" width="1" height="22" rx="3" fill="hsl(145, 65%, 45%)"/>
  <text x="247" y="384" fill="#222">2,777</text>
</svg>
