<?xml version="1.0" encoding="UTF-8" standalone="no"?><svg xmlns="http://www.w3.org/2000/svg" xmlns:xlink= "http://www.w3.org/1999/xlink" width="600" height="390" aria-label="A chart." style="overflow: hidden;"><defs id="_ABSTRACT_RENDERER_ID_324"><clipPath id="_ABSTRACT_RENDERER_ID_325"><rect x="115" y="75" width="371" height="241"></rect></clipPath><filter id="_ABSTRACT_RENDERER_ID_326"><feGaussianBlur in="SourceAlpha" stdDeviation="2"></feGaussianBlur><feOffset dx="1" dy="1"></feOffset><feComponentTransfer><feFuncA type="linear" slope="0.1"></feFuncA></feComponentTransfer><feMerge><feMergeNode></feMergeNode><feMergeNode in="SourceGraphic"></feMergeNode></feMerge></filter></defs><rect x="0" y="0" width="600" height="390" stroke="none" stroke-width="0" fill="#ffffff"></rect><g><text text-anchor="start" x="115" y="52.05" font-family="Arial" font-size="13" font-weight="bold" stroke="none" stroke-width="0" fill="#000000">Data Import</text><rect x="115" y="41" width="371" height="13" stroke="none" stroke-width="0" fill-opacity="0" fill="#ffffff"></rect></g><g><rect x="115" y="75" width="371" height="241" stroke="none" stroke-width="0" fill-opacity="0" fill="#ffffff"></rect><g clip-path="url(https://www.rapidtables.com/tools/bar-graph.html#_ABSTRACT_RENDERER_ID_325)"><g><rect x="115" y="75" width="1" height="241" stroke="none" stroke-width="0" fill="#cccccc"></rect><rect x="189" y="75" width="1" height="241" stroke="none" stroke-width="0" fill="#cccccc"></rect><rect x="263" y="75" width="1" height="241" stroke="none" stroke-width="0" fill="#cccccc"></rect><rect x="337" y="75" width="1" height="241" stroke="none" stroke-width="0" fill="#cccccc"></rect><rect x="411" y="75" width="1" height="241" stroke="none" stroke-width="0" fill="#cccccc"></rect><rect x="485" y="75" width="1" height="241" stroke="none" stroke-width="0" fill="#cccccc"></rect><rect x="152" y="75" width="1" height="241" stroke="none" stroke-width="0" fill="#ebebeb"></rect><rect x="226" y="75" width="1" height="241" stroke="none" stroke-width="0" fill="#ebebeb"></rect><rect x="300" y="75" width="1" height="241" stroke="none" stroke-width="0" fill="#ebebeb"></rect><rect x="374" y="75" width="1" height="241" stroke="none" stroke-width="0" fill="#ebebeb"></rect><rect x="448" y="75" width="1" height="241" stroke="none" stroke-width="0" fill="#ebebeb"></rect></g><g><rect x="116" y="83" width="195" height="12" stroke="none" stroke-width="0" fill="#3366cc"></rect><rect x="116" y="123" width="125" height="12" stroke="none" stroke-width="0" fill="#3366cc"></rect><rect x="116" y="163" width="290" height="12" stroke="none" stroke-width="0" fill="#3366cc"></rect><rect x="116" y="203" width="82" height="12" stroke="none" stroke-width="0" fill="#3366cc"></rect><rect x="116" y="243" width="30" height="12" stroke="none" stroke-width="0" fill="#3366cc"></rect><rect x="116" y="283" width="190" height="12" stroke="none" stroke-width="0" fill="#3366cc"></rect><rect x="116" y="96" width="356" height="12" stroke="none" stroke-width="0" fill="#dc3912"></rect><rect x="116" y="136" width="254" height="12" stroke="none" stroke-width="0" fill="#dc3912"></rect><rect x="116" y="176" width="296" height="12" stroke="none" stroke-width="0" fill="#dc3912"></rect><rect x="116" y="216" width="89" height="12" stroke="none" stroke-width="0" fill="#dc3912"></rect><rect x="116" y="256" width="35" height="12" stroke="none" stroke-width="0" fill="#dc3912"></rect><rect x="116" y="296" width="208" height="12" stroke="none" stroke-width="0" fill="#dc3912"></rect></g><g><rect x="115" y="75" width="1" height="241" stroke="none" stroke-width="0" fill="#333333"></rect></g></g><g></g><g><g><text text-anchor="middle" x="115.5" y="335.05" font-family="Arial" font-size="13" stroke="none" stroke-width="0" fill="#444444">0</text></g><g><text text-anchor="middle" x="189.5" y="335.05" font-family="Arial" font-size="13" stroke="none" stroke-width="0" fill="#444444">20,000</text></g><g><text text-anchor="middle" x="263.5" y="335.05" font-family="Arial" font-size="13" stroke="none" stroke-width="0" fill="#444444">40,000</text></g><g><text text-anchor="middle" x="337.5" y="335.05" font-family="Arial" font-size="13" stroke="none" stroke-width="0" fill="#444444">60,000</text></g><g><text text-anchor="middle" x="411.5" y="335.05" font-family="Arial" font-size="13" stroke="none" stroke-width="0" fill="#444444">80,000</text></g><g><text text-anchor="middle" x="485.5" y="335.05" font-family="Arial" font-size="13" stroke="none" stroke-width="0" fill="#444444">100,000</text></g><g><text text-anchor="end" x="104.66666666666666" y="100.05" font-family="Arial" font-size="13" stroke="none" stroke-width="0" fill="#222222">LightDB</text></g><g><text text-anchor="end" x="104.66666666666666" y="140.05" font-family="Arial" font-size="13" stroke="none" stroke-width="0" fill="#222222">PostgreSQL</text></g><g><text text-anchor="end" x="104.66666666666666" y="180.05" font-family="Arial" font-size="13" stroke="none" stroke-width="0" fill="#222222">MongoDB</text></g><g><text text-anchor="end" x="104.66666666666666" y="220.05" font-family="Arial" font-size="13" stroke="none" stroke-width="0" fill="#222222">ArangoDB</text></g><g><text text-anchor="end" x="104.66666666666666" y="260.05" font-family="Arial" font-size="13" stroke="none" stroke-width="0" fill="#222222">MariaDB</text></g><g><text text-anchor="end" x="104.66666666666666" y="300.05" font-family="Arial" font-size="13" stroke="none" stroke-width="0" fill="#222222">SQLite</text></g></g></g><g><g><text text-anchor="middle" x="300.5" y="368.05" font-family="Arial" font-size="13" font-style="italic" stroke="none" stroke-width="0" fill="#222222">Database</text><rect x="115" y="357" width="371" height="13" stroke="none" stroke-width="0" fill-opacity="0" fill="#ffffff"></rect></g><g><text text-anchor="middle" x="21.383333333333336" y="195.5" font-family="Arial" font-size="13" font-style="italic" transform="rotate(-90 21.383333333333336 195.5)" stroke="none" stroke-width="0" fill="#222222">Records Per Second</text><path d="M10.333333333333327,316L10.333333333333341,75L23.333333333333343,75L23.33333333333333,316Z" stroke="none" stroke-width="0" fill-opacity="0" fill="#ffffff"></path></g></g><g></g></svg>